<svg xmlns="http://www.w3.org/2000/svg" viewBox="0 0 24 24">
  <path d="M10.59 13.41C10.2 13 10.2 12.35 10.59 11.94L13.17 9.36C14.34 8.2 16.24 8.2 17.41 9.36C18.58 10.53 18.58 12.43 17.41 13.6L15.88 15.12C15.49 15.51 14.86 15.51 14.47 15.12C14.08 14.73 14.08 14.1 14.47 13.71L16 12.18C16.39 11.79 16.39 11.16 16 10.77C15.61 10.38 14.98 10.38 14.59 10.77L12 13.35C11.61 13.74 10.98 13.74 10.59 13.35M13.41 10.59C13.8 11 13.8 11.65 13.41 12.06L10.83 14.64C9.66 15.8 7.76 15.8 6.59 14.64C5.42 13.47 5.42 11.57 6.59 10.4L8.12 8.88C8.51 8.49 9.14 8.49 9.53 8.88C9.92 9.27 9.92 9.9 9.53 10.29L8 11.82C7.61 12.21 7.61 12.84 8 13.23C8.39 13.62 9.02 13.62 9.41 13.23L12 10.65C12.39 10.26 13.02 10.26 13.41 10.65Z"/>
</svg>
